<svg width="50" height="50"  viewBox="0 0 200 200" xmlns="http://www.w3.org/2000/svg" style="fill: rgb(6, 197, 244); filter: drop-shadow(rgba(0, 0, 0, 0.25) 0px 0.5px 1px);">
    <path d="M28.2307 89.8987C79.5175 66.8612 145.887 38.7737 155.048 34.8862C179.08 24.7112 186.454 26.6612 182.777 49.1945C180.137 65.3903 172.518 119.011 166.446 152.386C162.842 172.178 154.758 174.524 142.047 165.961C135.934 161.84 105.079 141.007 98.3828 136.115C92.2699 131.657 83.839 126.295 94.4123 115.732C98.1747 111.97 122.839 87.9237 142.055 69.207C144.573 66.7487 141.41 62.7112 138.505 64.682C112.604 82.2195 76.6936 106.561 72.1232 109.732C65.2186 114.52 58.5874 116.715 46.6838 113.224C37.6898 110.586 28.904 107.44 25.4843 106.24C12.3157 101.624 15.4416 95.6445 28.2307 89.8987Z"/>
</svg>